<svg width="132.000000" height="23.000000" viewBox="0 0 132 23" fill="none" xmlns="http://www.w3.org/2000/svg" xmlns:xlink="http://www.w3.org/1999/xlink">
	<desc>
			Created with Pixso.
	</desc>
	<defs/>
	<path id="Vector" d="M4.15 -0.2L4.15 6.2L5.16 6.2C5.87 5.08 7.24 4.31 9.1 4.31C13.04 4.31 15.45 7.51 15.45 11.62C15.45 16.1 12.8 18.95 9.13 18.95C7.24 18.95 5.87 18.21 5.2 17.03L4.15 17.03L4.15 18.68L0 18.68L0 -0.2L4.15 -0.2ZM7.74 15.14C9.9 15.14 11.32 13.6 11.32 11.6C11.32 9.64 9.9 8.1 7.74 8.1C5.55 8.1 4.15 9.64 4.15 11.6C4.15 13.6 5.55 15.14 7.74 15.14Z" fill="#000000" fill-opacity="1.000000" fill-rule="nonzero"/>
	<path id="Vector" d="M33.85 8.39L33.85 4.58L35.82 4.58L35.82 1.31L39.95 1.31L39.95 4.58L43.5 4.58L43.5 8.39L39.95 8.39L39.95 12.74C39.95 14.24 40.38 14.87 41.87 14.87L43.52 14.87L43.52 18.67L41.74 18.67C37.39 18.67 35.84 16.87 35.84 12.79L35.84 8.39L33.85 8.39Z" fill="#000000" fill-opacity="1.000000" fill-rule="nonzero"/>
	<path id="Vector" d="M51.04 9.97L54.4 9.97L54.4 9.92C54.4 8.37 53.4 7.7 51.93 7.7C50.46 7.7 49.71 8.4 49.47 9.36L45.47 9.36C45.74 6.44 47.77 4.31 52.01 4.31C56.28 4.31 58.56 6.47 58.56 10L58.56 18.68L54.4 18.68L54.4 17.44L53.39 17.44C52.73 18.21 51.74 18.95 49.77 18.95C46.81 18.95 45.29 16.98 45.29 14.48C45.29 11.64 47.12 9.97 51.04 9.97ZM51.58 15.52C52.59 15.52 53.52 15.33 54.4 14.79L54.4 12.66L51.55 12.66C50.2 12.66 49.42 13.16 49.42 14.08C49.42 15.03 50.22 15.52 51.58 15.52Z" fill="#000000" fill-opacity="1.000000" fill-rule="nonzero"/>
	<path id="Vector" d="M60.94 18.68L60.94 4.58L65.1 4.58L65.1 5.78L66.11 5.78C66.84 4.9 67.69 4.31 69.53 4.31C72.68 4.31 74.38 6.35 74.38 9.89L74.38 18.68L70.25 18.68L70.25 10.79C70.25 9.01 69.48 8.1 67.74 8.1C66.48 8.1 65.69 8.45 65.12 8.9L65.12 18.68L60.94 18.68Z" fill="#000000" fill-opacity="1.000000" fill-rule="nonzero"/>
	<path id="Vector" d="M78.84 -0.78C80.19 -0.78 81.12 0.11 81.12 1.41C81.12 2.61 80.19 3.54 78.84 3.54C77.5 3.54 76.54 2.61 76.54 1.41C76.54 0.11 77.5 -0.78 78.84 -0.78ZM80.92 4.58L80.92 18.68L76.76 18.68L76.76 4.58L80.92 4.58Z" fill="#000000" fill-opacity="1.000000" fill-rule="nonzero"/>
	<path id="Vector" d="M93.26 6.19L94.27 6.19L94.27 4.58L98.43 4.58L98.43 22.77L94.27 22.77L94.27 17.03L93.23 17.03C92.54 18.21 91.18 18.95 89.29 18.95C85.63 18.95 82.97 16.1 82.97 11.62C82.97 7.51 85.39 4.31 89.32 4.31C91.18 4.31 92.56 5.07 93.26 6.19ZM90.68 15.14C92.88 15.14 94.27 13.6 94.27 11.6C94.27 9.64 92.88 8.1 90.68 8.1C88.52 8.1 87.1 9.64 87.1 11.6C87.1 13.6 88.52 15.14 90.68 15.14Z" fill="#000000" fill-opacity="1.000000" fill-rule="nonzero"/>
	<path id="Vector" d="M100.81 13.36L100.81 4.58L104.94 4.58L104.94 12.47C104.94 14.24 105.71 15.16 107.45 15.16C108.72 15.16 109.5 14.8 110.08 14.36L110.08 4.58L114.24 4.58L114.24 18.67L110.08 18.67L110.08 17.48L109.07 17.48C108.33 18.36 107.48 18.95 105.64 18.95C102.51 18.95 100.81 16.9 100.81 13.36Z" fill="#000000" fill-opacity="1.000000" fill-rule="nonzero"/>
	<path id="Vector" d="M116.3 11.6C116.3 7.49 119.31 4.29 123.85 4.29C128.56 4.29 131.36 7.52 131.36 11.46C131.36 11.89 131.32 12.28 131.31 12.55L120.3 12.55C120.54 14.44 121.8 15.52 123.85 15.52C125.4 15.52 126.54 14.98 127 13.97L131.16 13.97C130.35 16.85 127.8 18.93 123.85 18.93C119.31 18.95 116.3 15.72 116.3 11.6ZM127.16 9.91C126.73 8.63 125.63 7.68 123.85 7.68C122.11 7.68 120.89 8.58 120.46 9.91L127.16 9.91Z" fill="#000000" fill-opacity="1.000000" fill-rule="nonzero"/>
	<path id="Vector" d="M24.01 17.91C23.92 17.12 24.48 16.4 25.28 16.31C26.06 16.21 26.78 16.77 26.88 17.57C26.97 18.36 26.41 19.08 25.61 19.17C25.55 19.17 25.5 19.19 25.44 19.19C24.72 19.17 24.09 18.63 24.01 17.91ZM22.01 18.72C21.26 18.43 20.89 17.6 21.18 16.87C21.47 16.12 22.3 15.75 23.04 16.03C23.77 16.32 24.16 17.15 23.87 17.89C23.64 18.47 23.1 18.82 22.52 18.82C22.35 18.82 22.17 18.79 22.01 18.72ZM27 17.51C26.56 16.85 26.72 15.96 27.37 15.51C28.03 15.06 28.92 15.22 29.37 15.88C29.82 16.53 29.66 17.43 29 17.87C28.75 18.05 28.46 18.13 28.19 18.13C27.72 18.13 27.28 17.91 27 17.51ZM19.02 16.66C18.49 16.07 18.54 15.15 19.13 14.63C19.72 14.1 20.64 14.15 21.16 14.74C21.69 15.33 21.64 16.24 21.05 16.77C20.78 17.01 20.44 17.14 20.09 17.14C19.69 17.15 19.31 16.98 19.02 16.66ZM29.47 15.76C28.76 15.4 28.49 14.52 28.86 13.81C29.23 13.11 30.11 12.84 30.81 13.2C31.52 13.57 31.79 14.45 31.42 15.15C31.16 15.65 30.67 15.92 30.14 15.92C29.9 15.92 29.68 15.88 29.47 15.76ZM17.32 13.46C17.13 12.69 17.61 11.91 18.38 11.72C19.15 11.52 19.93 12 20.12 12.77C20.32 13.54 19.84 14.32 19.07 14.52C18.95 14.55 18.84 14.56 18.71 14.56C18.08 14.55 17.48 14.12 17.32 13.46ZM29.39 11.64C29.39 10.82 30.03 10.18 30.83 10.18C31.63 10.18 32.27 10.82 32.27 11.62L32.27 11.64C32.27 12.43 31.63 13.08 30.83 13.08C30.04 13.08 29.39 12.42 29.39 11.64ZM18.38 11.57C17.61 11.38 17.13 10.6 17.32 9.83C17.52 9.06 18.3 8.58 19.07 8.77C19.84 8.96 20.32 9.73 20.12 10.52C19.96 11.17 19.37 11.62 18.73 11.62C18.6 11.6 18.49 11.6 18.38 11.57ZM28.84 9.43C28.48 8.72 28.73 7.86 29.44 7.47C30.14 7.11 31 7.36 31.39 8.07C31.76 8.77 31.5 9.64 30.8 10.02C30.59 10.13 30.35 10.2 30.12 10.2C29.61 10.2 29.12 9.92 28.84 9.43ZM19.13 8.64C18.54 8.12 18.48 7.2 19 6.61C19.53 6.02 20.44 5.95 21.04 6.48C21.63 7.01 21.69 7.92 21.16 8.52C20.88 8.83 20.48 9 20.08 9C19.74 9 19.4 8.88 19.13 8.64ZM27.36 7.75C26.7 7.3 26.54 6.4 26.99 5.75C27.44 5.09 28.33 4.93 28.99 5.38C29.64 5.83 29.8 6.72 29.36 7.38C29.08 7.78 28.62 8 28.17 8C27.88 8 27.6 7.92 27.36 7.75ZM21.15 6.4C20.86 5.67 21.24 4.82 21.98 4.55C22.72 4.26 23.55 4.64 23.84 5.38C24.12 6.12 23.74 6.95 23 7.23C22.83 7.3 22.67 7.33 22.49 7.33C21.92 7.33 21.37 6.98 21.15 6.4ZM25.24 6.96C24.46 6.87 23.88 6.15 23.98 5.36C24.08 4.58 24.8 4 25.58 4.1C26.36 4.19 26.94 4.91 26.84 5.7C26.76 6.43 26.14 6.96 25.42 6.96C25.36 6.96 25.31 6.96 25.24 6.96Z" fill="#000000" fill-opacity="1.000000" fill-rule="nonzero"/>
	<path id="Vector" d="M22.49 15.46C21.8 15.06 21.56 14.18 21.96 13.49C22.36 12.8 23.24 12.56 23.93 12.96C24.62 13.36 24.86 14.24 24.46 14.93C24.19 15.4 23.71 15.65 23.21 15.65C22.96 15.65 22.72 15.59 22.49 15.46ZM24.94 14.93C24.54 14.24 24.78 13.36 25.47 12.96C26.16 12.56 27.04 12.8 27.44 13.49C27.84 14.18 27.6 15.06 26.91 15.46C26.68 15.59 26.43 15.65 26.19 15.65C25.69 15.65 25.2 15.4 24.94 14.93ZM20.27 11.64C20.27 10.84 20.91 10.2 21.71 10.2C22.51 10.2 23.15 10.84 23.15 11.64C23.15 12.44 22.51 13.08 21.71 13.08C20.92 13.08 20.27 12.44 20.27 11.64ZM26.22 11.67C26.22 11.65 26.22 11.64 26.22 11.62C26.22 10.82 26.86 10.18 27.66 10.18C28.46 10.18 29.1 10.82 29.1 11.62L29.1 11.64C29.1 12.44 28.46 13.08 27.66 13.08C26.88 13.08 26.25 12.44 26.22 11.67ZM21.95 9.78C21.55 9.09 21.79 8.21 22.48 7.81C23.16 7.41 24.04 7.65 24.44 8.34C24.84 9.03 24.6 9.91 23.92 10.31C23.69 10.44 23.44 10.5 23.2 10.5C22.7 10.5 22.22 10.24 21.95 9.78ZM25.45 10.29C24.76 9.89 24.52 9.01 24.92 8.32C25.32 7.64 26.2 7.4 26.89 7.8C27.58 8.2 27.82 9.07 27.42 9.76C27.15 10.23 26.67 10.48 26.17 10.48C25.93 10.48 25.68 10.42 25.45 10.29Z" fill="#000000" fill-opacity="1.000000" fill-rule="nonzero"/>
</svg>
