<svg width="40.000000" height="40.000000" viewBox="0 0 40 40" fill="none" xmlns="http://www.w3.org/2000/svg" xmlns:xlink="http://www.w3.org/1999/xlink">
	<desc>
			Created with Pixso.
	</desc>
	<defs/>
	<rect id="unknown device" width="40.000000" height="40.000000" fill="#FFFFFF" fill-opacity="0"/>
	<circle id="Ellipse Back" cx="20.000000" cy="20.000000" r="20.000000" fill="#F0F0F0" fill-opacity="1.000000"/>
	<rect id="body" x="11.428589" y="7.857178" rx="2.142857" width="17.142857" height="22.857143" fill="#FFFFFF" fill-opacity="1.000000"/>
	<rect id="body" x="11.785736" y="8.214294" rx="2.142857" width="16.428572" height="22.142859" stroke="#C2C2C2" stroke-opacity="1.000000" stroke-width="0.714286"/>
	<rect id="leg" x="14.285706" y="30.000000" rx="0.714286" width="2.142857" height="2.142857" fill="#C2C2C2" fill-opacity="1.000000"/>
	<rect id="leg" x="23.571442" y="30.000000" rx="0.714286" width="2.142857" height="2.142857" fill="#C2C2C2" fill-opacity="1.000000"/>
	<path id="Vector" d="M19.58 20.61C19.48 20.87 19.43 21.22 19.43 21.66L20.46 21.66C20.46 21.09 20.59 20.66 20.87 20.36L21.47 19.76C22.08 19.12 22.38 18.48 22.38 17.83C22.38 17.17 22.18 16.65 21.79 16.28C21.4 15.9 20.85 15.71 20.15 15.71C19.47 15.71 18.92 15.9 18.49 16.27C18.07 16.64 17.86 17.12 17.85 17.72L18.88 17.72C18.88 17.39 19 17.12 19.23 16.91C19.46 16.71 19.77 16.61 20.15 16.61C20.54 16.61 20.83 16.72 21.04 16.95C21.24 17.17 21.35 17.47 21.35 17.86C21.35 18.27 21.19 18.65 20.88 19L20.15 19.76C19.86 20.07 19.67 20.35 19.58 20.61Z" fill="#C2C2C2" fill-opacity="1.000000" fill-rule="evenodd"/>
	<path id="Vector" d="M20.46 23.04C20.46 23.32 20.23 23.55 19.94 23.55C19.66 23.55 19.42 23.32 19.42 23.04C19.42 22.75 19.66 22.52 19.94 22.52C20.23 22.52 20.46 22.75 20.46 23.04Z" fill="#C4C4C4" fill-opacity="1.000000" fill-rule="nonzero"/>
</svg>
