<svg width="24.000000" height="24.000000" viewBox="0 0 24 24" fill="none" xmlns="http://www.w3.org/2000/svg" xmlns:xlink="http://www.w3.org/1999/xlink">
	<desc>
			Created with Pixso.
	</desc>
	<defs>
		<clipPath id="clip5_239">
			<rect id="â†³ ðŸ“icon " width="24.000000" height="24.000000" transform=" rotate(-0.000000)" fill="white" fill-opacity="0"/>
		</clipPath>
	</defs>
	<rect id="â†³ ðŸ“icon " width="24.000000" height="24.000000" transform=" rotate(-0.000000)" fill="#FFFFFF" fill-opacity="0"/>
	<g clip-path="url(#clip5_239)">
		<path id="Vector" d="M22 5.71L17.4 1.85L16.11 3.39L20.71 7.25L22 5.71ZM7.88 3.39L6.6 1.85L2 5.7L3.29 7.23L7.88 3.39ZM12 4C7.03 4 3 8.02 3 13C3 17.96 7.01 22 12 22C16.96 22 21 17.96 21 13C21 8.02 16.96 4 12 4ZM12 20C8.13 20 5 16.87 5 13C5 9.13 8.13 6 12 6C15.87 6 19 9.13 19 13C19 16.87 15.87 20 12 20ZM10.54 14.53L8.41 12.4L7.35 13.46L10.53 16.64L16.53 10.64L15.47 9.57L10.54 14.53Z" fill="#000000" fill-opacity="0.870000" fill-rule="nonzero"/>
	</g>
</svg>
