<svg width="20.000000" height="20.000000" viewBox="0 0 20 20" fill="none" xmlns="http://www.w3.org/2000/svg" xmlns:xlink="http://www.w3.org/1999/xlink">
	<desc>
			Created with Pixso.
	</desc>
	<defs/>
	<path id="Vector" d="M7.5 4.5L7.5 7.5L4.5 7.5L4.5 4.5L7.5 4.5ZM9 3L3 3L3 9L9 9L9 3ZM7.5 12.5L7.5 15.5L4.5 15.5L4.5 12.5L7.5 12.5ZM9 11L3 11L3 17L9 17L9 11ZM15.5 4.5L15.5 7.5L12.5 7.5L12.5 4.5L15.5 4.5ZM17 3L11 3L11 9L17 9L17 3ZM11 11L12.5 11L12.5 12.5L11 12.5L11 11ZM12.5 12.5L14 12.5L14 14L12.5 14L12.5 12.5ZM14 11L15.5 11L15.5 12.5L14 12.5L14 11ZM11 14L12.5 14L12.5 15.5L11 15.5L11 14ZM12.5 15.5L14 15.5L14 17L12.5 17L12.5 15.5ZM14 14L15.5 14L15.5 15.5L14 15.5L14 14ZM15.5 12.5L17 12.5L17 14L15.5 14L15.5 12.5ZM15.5 15.5L17 15.5L17 17L15.5 17L15.5 15.5ZM20 5L18 5L18 2L15 2L15 0L20 0L20 5ZM20 20L20 15L18 15L18 18L15 18L15 20L20 20ZM0 20L5 20L5 18L2 18L2 15L0 15L0 20ZM0 0L0 5L2 5L2 2L5 2L5 0L0 0Z" fill="#000000" fill-opacity="0.600000" fill-rule="nonzero"/>
</svg>
